<svg width="69" height="30" viewBox="0 0 69 30" fill="none" xmlns="http://www.w3.org/2000/svg">
<path opacity="0.5" d="M34.1534 6.9274C34.1473 6.9274 34.1426 6.9274 34.1372 6.92664C34.5146 6.94342 34.6058 6.94723 34.1534 6.9274Z" fill="black"/>
<path d="M67.8488 18.6361C67.0392 18.3035 62.7929 16.0898 61.0522 15.9647C59.3115 15.8396 59.7229 16.2912 58.1546 15.4124C56.5848 14.5336 56.5848 14.5336 56.5848 14.5336C56.5848 14.5336 57.3202 13.1536 57.6365 11.29C57.9527 9.42637 58.2489 8.40493 58.2489 8.40493C58.2489 8.40493 61.0584 6.45587 62.5207 7.26753C63.9846 8.07996 63.9761 8.11657 64.7594 7.71379C65.5428 7.31101 64.7463 6.51461 64.7463 6.51461C64.7463 6.51461 65.3588 7.28355 65.7763 6.46503C65.9565 6.11107 66.4948 5.19795 65.4214 4.04073C64.0867 2.60201 64.9953 2.6249 64.3527 2.25111C63.7085 1.87579 62.1642 0.932159 60.9648 0.72543C59.7399 0.514123 59.7569 0.66898 58.9232 0.466064C58.6634 0.765097 59.3888 1.54853 59.3888 1.54853C59.3888 1.54853 57.208 1.47149 55.8834 2.16414C54.5602 2.85375 54.5757 3.00403 53.0175 3.69974C51.4592 4.39697 51.8521 3.71347 49.6713 4.48165C47.4906 5.24983 45.4243 7.20422 43.812 7.61844C41.4766 8.21803 32.5046 6.85941 34.1363 6.92578C33.0815 6.87925 29.7856 6.73202 29.7856 6.73202C24.8844 7.00359 23.0972 7.3606 17.292 12.4068C11.4867 17.453 9.21859 18.0564 5.09529 18.138C0.971991 18.2211 2.68565 17.1333 1.01066 17.1013C-0.663565 17.0692 0.244303 17.9915 0.25745 18.6819C0.270596 19.3745 2.60059 20.1137 5.33347 20.1137C8.06713 20.1137 12.2044 18.9977 19.2059 13.4229C21.3047 11.7523 22.5002 10.7903 23.1475 10.2609C22.9549 11.1572 21.5607 17.4667 20.2259 18.1037C18.7883 18.7917 16.4901 19.6774 14.8452 20.8689C13.2004 22.062 12.2059 25.4322 12.0799 26.4369C11.953 27.4408 12.376 27.9405 12.9011 28.2738C13.4254 28.6064 13.6512 29.0771 14.4377 29.0771C15.2241 29.0771 14.7911 28.4355 14.5212 28.0618C13.9667 27.2928 13.0318 26.4766 14.5599 24.5786C16.6927 21.9278 19.4031 22.3077 22.5892 20.5958C25.7744 18.8856 30.1738 14.809 30.1738 14.809C30.1738 14.809 32.5425 14.3246 34.5887 15.3216C36.6356 16.3194 38.2333 17.7184 41.2948 18.241C44.3571 18.7612 52.3493 16.9029 52.3493 16.9029C52.3493 16.9029 53.5673 18.4973 55.7171 18.5972C57.8661 18.6971 59.6424 17.5216 60.599 17.7055C61.5572 17.8885 65.2536 18.6445 66.1769 19.2021C67.0995 19.759 66.7816 21.0513 68.9183 20.1137C69.2176 19.9802 68.6569 18.9672 67.8488 18.6361Z" fill="black"/>
<path opacity="0.5" d="M58.9237 0.0091534L58.9214 0C58.9214 0 58.9229 0.00381353 58.9237 0.0091534Z" fill="black"/>
<path d="M30.5534 15.5749C29.9378 16.1348 27.9311 17.9274 25.7913 19.4958C26.1718 20.4044 26.4672 21.2588 26.4726 21.734C26.4896 23.0911 24.2749 26.3705 24.2911 27.3973C24.3073 28.4272 24.7551 28.8856 25.3235 29.4059C25.8926 29.9261 26.4162 30.4815 26.577 29.2899C26.7379 28.0991 25.7155 28.6003 25.7125 27.8909C25.7094 27.1814 26.6335 25.6367 27.372 24.7022C28.1105 23.7693 29.9603 22.107 30.7676 20.6195C31.2556 19.7194 32.083 17.3332 32.6607 15.5863C32.2601 15.5268 31.8874 15.507 31.578 15.507C31.1341 15.507 30.7699 15.5451 30.5534 15.5749Z" fill="black"/>
<path d="M59.1445 18.8062C58.5444 18.9954 57.8415 19.2174 57.0581 19.3349C57.6914 19.7598 58.1694 20.1603 58.1949 20.4196C58.2761 21.2229 58.5158 21.5029 58.1949 21.8187C57.8747 22.1345 57.7069 22.1643 57.5236 22.4816C57.3396 22.7974 57.2831 23.7838 57.7595 23.8867C58.2351 23.9882 58.5653 23.7586 58.7316 23.4039C58.897 23.0476 59.7384 20.235 59.7268 19.5378C59.7229 19.3562 59.5466 19.077 59.2798 18.7643C59.235 18.778 59.1901 18.791 59.1445 18.8062Z" fill="black"/>
</svg>
